<svg version="1.2" xmlns="http://www.w3.org/2000/svg" viewBox="0 0 162 161" width="162" height="161"><style>tspan{white-space:pre}.a{fill:#2376ff}.b{fill:#fff}</style><path class="a" d="m81 0.7c44.3 0 80.2 35.9 80.2 80.2 0 44.3-35.9 80.2-80.2 80.2-44.3 0-80.2-35.9-80.2-80.2 0-44.3 35.9-80.2 80.2-80.2z"/><path class="b" d="m72.8 38.6q8.7 1 12.9 7.7c1.8 2.8 0.5 6.5-2.6 7.8-2.4 1-5.2 0.1-6.6-2.1q-2.6-4.2-6.9-4.2-3 0-4.8 1.8-1.9 1.9-1.9 4.5 0 2.7 1.8 4.1 1.7 1.4 7.5 3.6 6.3 2.3 9.9 4.3 3.6 2.1 5.8 5.7 2.1 3.6 2.1 8.5 0 7.4-4.4 12.4-4.5 4.9-12.8 5.8c0 0-2.1 0.5-3.8 0.5-1.8 0-3.3-0.4-3.3-0.4q-10.7-1.1-15.1-10.1c-1.6-3.1 0.2-6.7 3.4-7.6l0.5-0.1c2.4-0.7 5.1 0.5 6.2 2.8q2.4 5.2 8.8 5.2 4 0 5.9-2 1.9-2 1.9-4.8 0-2.9-1.9-4.4-1.9-1.5-8.4-3.8-5.8-2.1-9.1-4.1-3.3-1.9-5.4-5.5-2-3.6-2-8.3 0-6.3 3.7-11.3 3.6-4.9 11.5-6m3.8-7.6c3 0 5.5 2.5 5.5 5.5v2c0 3-2.5 5.5-5.5 5.5-3 0-5.5-2.5-5.5-5.5v-2c0-3 2.5-5.5 5.5-5.5zm0 63c3 0 5.5 2.5 5.5 5.5v2c0 3-2.5 5.5-5.5 5.5-3 0-5.5-2.5-5.5-5.5v-2c0-3 2.5-5.5 5.5-5.5z"/></svg>